<svg xmlns="http://www.w3.org/2000/svg" xmlns:xlink="http://www.w3.org/1999/xlink" width="535pt" height="1352" viewBox="0 0 535.39 1014"><g id="graph0" class="graph" transform="scale(1 1) rotate(0) translate(4 1010)"><title>G</title><polygon fill="#fff" stroke="transparent" points="-4 4 -4 -1010 531.39 -1010 531.39 4 -4 4"/><g id="clust1" class="cluster"><title>cluster_Global</title><path fill="none" stroke="gray" d="M242.39,-8C242.39,-8 507.39,-8 507.39,-8 513.39,-8 519.39,-14 519.39,-20 519.39,-20 519.39,-986 519.39,-986 519.39,-992 513.39,-998 507.39,-998 507.39,-998 242.39,-998 242.39,-998 236.39,-998 230.39,-992 230.39,-986 230.39,-986 230.39,-20 230.39,-20 230.39,-14 236.39,-8 242.39,-8"/><text x="374.89" y="-985.2" fill="gray" font-family="Times,serif" font-size="11" text-anchor="middle">Global</text></g><g id="node1" class="node"><title>\\Object_Sync_Salesforce</title><polygon fill="none" stroke="#000" points="457.39 -970 292.39 -970 292.39 -934 457.39 -934 457.39 -970"/><text x="374.89" y="-949.2" font-family="Courier,monospace" font-size="11" text-anchor="middle">Object_Sync_Salesforce</text></g><g id="node2" class="node"><title>\\Object_Sync_Sf_Salesforce</title><polygon fill="none" stroke="#000" points="467.39 -916 282.39 -916 282.39 -880 467.39 -880 467.39 -916"/><text x="374.89" y="-895.2" font-family="Courier,monospace" font-size="11" text-anchor="middle">Object_Sync_Sf_Salesforce</text></g><g id="node3" class="node"><title>\\Object_Sync_Sf_Exception</title><polygon fill="none" stroke="#000" points="464.39 -862 285.39 -862 285.39 -826 464.39 -826 464.39 -862"/><text x="374.89" y="-841.2" font-family="Courier,monospace" font-size="11" text-anchor="middle">Object_Sync_Sf_Exception</text></g><g id="node19" class="node"><title>\\Exception</title><ellipse cx="83.19" cy="-655" fill="none" stroke="#000" rx="48.99" ry="18"/><text x="83.19" y="-651.3" fill="gray" font-family="Times,serif" font-size="14" text-anchor="middle">\Exception</text></g><g id="edge1" class="edge"><title>\\Object_Sync_Sf_Exception-&gt;\\Exception</title><path fill="none" stroke="#000" d="M285.36,-836.63C266.4,-832.56 247.08,-826.37 230.39,-817 171.3,-783.85 123.42,-717.95 99.92,-681.24"/><polygon fill="none" stroke="#000" points="102.77 -679.18 94.49 -672.58 96.84 -682.91 102.77 -679.18"/></g><g id="node4" class="node"><title>\\Object_Sync_Sf_Queue</title><polygon fill="none" stroke="#000" points="450.89 -808 298.89 -808 298.89 -772 450.89 -772 450.89 -808"/><text x="374.89" y="-787.2" font-family="Courier,monospace" font-size="11" text-anchor="middle">Object_Sync_Sf_Queue</text></g><g id="node5" class="node"><title>\\Object_Sync_Sf_Mapping</title><polygon fill="none" stroke="#000" points="457.39 -754 292.39 -754 292.39 -718 457.39 -718 457.39 -754"/><text x="374.89" y="-733.2" font-family="Courier,monospace" font-size="11" text-anchor="middle">Object_Sync_Sf_Mapping</text></g><g id="node6" class="node"><title>\\Object_Sync_Sf_Admin_Notice</title><polygon fill="none" stroke="#000" points="474.39 -700 275.39 -700 275.39 -664 474.39 -664 474.39 -700"/><text x="374.89" y="-679.2" font-family="Courier,monospace" font-size="11" text-anchor="middle">Object_Sync_Sf_Admin_Notice</text></g><g id="node7" class="node"><title>\\Object_Sync_Sf_Deactivate</title><polygon fill="none" stroke="#000" points="467.39 -646 282.39 -646 282.39 -610 467.39 -610 467.39 -646"/><text x="374.89" y="-625.2" font-family="Courier,monospace" font-size="11" text-anchor="middle">Object_Sync_Sf_Deactivate</text></g><g id="node8" class="node"><title>\\Object_Sync_Sf_Rest</title><polygon fill="none" stroke="#000" points="447.39 -592 302.39 -592 302.39 -556 447.39 -556 447.39 -592"/><text x="374.89" y="-571.2" font-family="Courier,monospace" font-size="11" text-anchor="middle">Object_Sync_Sf_Rest</text></g><g id="node9" class="node"><title>\\Object_Sync_Sf_WordPress</title><polygon fill="none" stroke="#000" points="464.39 -538 285.39 -538 285.39 -502 464.39 -502 464.39 -538"/><text x="374.89" y="-517.2" font-family="Courier,monospace" font-size="11" text-anchor="middle">Object_Sync_Sf_WordPress</text></g><g id="node10" class="node"><title>\\WordpressException</title><polygon fill="none" stroke="#000" points="443.89 -484 305.89 -484 305.89 -448 443.89 -448 443.89 -484"/><text x="374.89" y="-463.2" font-family="Courier,monospace" font-size="11" text-anchor="middle">WordpressException</text></g><g id="edge2" class="edge"><title>\\WordpressException-&gt;\\Exception</title><path fill="none" stroke="#000" d="M305.78,-469.71C280.83,-473.36 253.16,-480.22 230.39,-493 171.3,-526.15 123.42,-592.05 99.92,-628.76"/><polygon fill="none" stroke="#000" points="96.84 -627.09 94.49 -637.42 102.77 -630.82 96.84 -627.09"/></g><g id="node11" class="node"><title>\\Object_Sync_Sf_WordPress_Transient</title><polygon fill="none" stroke="#000" points="497.89 -430 251.89 -430 251.89 -394 497.89 -394 497.89 -430"/><text x="374.89" y="-409.2" font-family="Courier,monospace" font-size="11" text-anchor="middle">Object_Sync_Sf_WordPress_Transient</text></g><g id="node12" class="node"><title>\\Object_Sync_Sf_Salesforce_Pull</title><polygon fill="none" stroke="#000" points="484.39 -376 265.39 -376 265.39 -340 484.39 -340 484.39 -376"/><text x="374.89" y="-355.2" font-family="Courier,monospace" font-size="11" text-anchor="middle">Object_Sync_Sf_Salesforce_Pull</text></g><g id="node13" class="node"><title>\\Object_Sync_Sf_Activate</title><polygon fill="none" stroke="#000" points="460.89 -322 288.89 -322 288.89 -286 460.89 -286 460.89 -322"/><text x="374.89" y="-301.2" font-family="Courier,monospace" font-size="11" text-anchor="middle">Object_Sync_Sf_Activate</text></g><g id="node14" class="node"><title>\\Object_Sync_Sf_Salesforce_Select_Query</title><polygon fill="none" stroke="#000" points="511.39 -268 238.39 -268 238.39 -232 511.39 -232 511.39 -268"/><text x="374.89" y="-247.2" font-family="Courier,monospace" font-size="11" text-anchor="middle">Object_Sync_Sf_Salesforce_Select_Query</text></g><g id="node15" class="node"><title>\\Object_Sync_Sf_Salesforce_Push</title><polygon fill="none" stroke="#000" points="484.39 -214 265.39 -214 265.39 -178 484.39 -178 484.39 -214"/><text x="374.89" y="-193.2" font-family="Courier,monospace" font-size="11" text-anchor="middle">Object_Sync_Sf_Salesforce_Push</text></g><g id="node16" class="node"><title>\\Object_Sync_Sf_Admin</title><polygon fill="none" stroke="#000" points="450.89 -160 298.89 -160 298.89 -124 450.89 -124 450.89 -160"/><text x="374.89" y="-139.2" font-family="Courier,monospace" font-size="11" text-anchor="middle">Object_Sync_Sf_Admin</text></g><g id="node17" class="node"><title>\\Object_Sync_Sf_Salesforce_Soap_Partner</title><polygon fill="none" stroke="#000" points="511.39 -106 238.39 -106 238.39 -70 511.39 -70 511.39 -106"/><text x="374.89" y="-85.2" font-family="Courier,monospace" font-size="11" text-anchor="middle">Object_Sync_Sf_Salesforce_Soap_Partner</text></g><g id="node20" class="node"><title>\\SforcePartnerClient</title><ellipse cx="83.19" cy="-88" fill="none" stroke="#000" rx="83.39" ry="18"/><text x="83.19" y="-84.3" fill="gray" font-family="Times,serif" font-size="14" text-anchor="middle">\SforcePartnerClient</text></g><g id="edge3" class="edge"><title>\\Object_Sync_Sf_Salesforce_Soap_Partner-&gt;\\SforcePartnerClient</title><path fill="none" stroke="#000" d="M238.37,-88C217.55,-88 196.48,-88 176.88,-88"/><polygon fill="none" stroke="#000" points="176.77 -84.5 166.77 -88 176.77 -91.5 176.77 -84.5"/></g><g id="node18" class="node"><title>\\Object_Sync_Sf_Logging</title><polygon fill="none" stroke="#000" points="457.39 -52 292.39 -52 292.39 -16 457.39 -16 457.39 -52"/><text x="374.89" y="-31.2" font-family="Courier,monospace" font-size="11" text-anchor="middle">Object_Sync_Sf_Logging</text></g><g id="node21" class="node"><title>\\WP_Logging</title><ellipse cx="83.19" cy="-34" fill="none" stroke="#000" rx="61.19" ry="18"/><text x="83.19" y="-30.3" fill="gray" font-family="Times,serif" font-size="14" text-anchor="middle">\WP_Logging</text></g><g id="edge4" class="edge"><title>\\Object_Sync_Sf_Logging-&gt;\\WP_Logging</title><path fill="none" stroke="#000" d="M292.03,-34C248.75,-34 196.15,-34 154.7,-34"/><polygon fill="none" stroke="#000" points="154.68 -30.5 144.68 -34 154.68 -37.5 154.68 -30.5"/></g></g></svg>